G04 Layer_Physical_Order=2*
G04 Layer_Color=16711680*
%FSLAX44Y44*%
%MOMM*%
G71*
G01*
G75*
%ADD10R,1.3000X0.7000*%
%ADD12C,0.2000*%
%ADD13C,3.5000*%
%ADD14C,1.8000*%
%ADD15R,1.8000X1.8000*%
%ADD16C,1.6000*%
%ADD17C,0.6000*%
%ADD18R,0.7000X1.3000*%
%ADD19R,0.8500X0.3500*%
%ADD20R,0.3500X0.8500*%
%ADD21R,10.7000X8.6000*%
%ADD22R,1.0000X3.4000*%
%ADD23C,0.3000*%
G36*
X459917Y388935D02*
X457872Y386444D01*
X455969Y382883D01*
X454797Y379019D01*
X454401Y375000D01*
X454797Y370981D01*
X455969Y367117D01*
X457872Y363556D01*
X460434Y360434D01*
X463556Y357872D01*
X467117Y355969D01*
X470981Y354797D01*
X475000Y354401D01*
X479019Y354797D01*
X482883Y355969D01*
X486444Y357872D01*
X488508Y359566D01*
X489778Y358966D01*
Y41034D01*
X488508Y40434D01*
X486444Y42128D01*
X482883Y44031D01*
X479019Y45203D01*
X475000Y45599D01*
X470981Y45203D01*
X467117Y44031D01*
X463556Y42128D01*
X460434Y39566D01*
X457872Y36444D01*
X455969Y32883D01*
X454797Y29019D01*
X454401Y25000D01*
X454797Y20981D01*
X455969Y17117D01*
X457872Y13556D01*
X460434Y10434D01*
X463556Y7872D01*
X467117Y5969D01*
X469421Y5270D01*
X469232Y4000D01*
X30768D01*
X30579Y5270D01*
X32883Y5969D01*
X36444Y7872D01*
X39566Y10434D01*
X42128Y13556D01*
X44031Y17117D01*
X45203Y20981D01*
X45599Y25000D01*
X45203Y29019D01*
X44031Y32883D01*
X42128Y36444D01*
X39566Y39566D01*
X36444Y42128D01*
X32883Y44031D01*
X29019Y45203D01*
X25000Y45599D01*
X20981Y45203D01*
X17117Y44031D01*
X13556Y42128D01*
X11048Y40070D01*
X9778Y40670D01*
Y130205D01*
X21778D01*
X25778Y126205D01*
Y119000D01*
X26660Y117000D01*
X28500D01*
Y116500D01*
X47500D01*
Y117000D01*
X50778D01*
X50778Y118701D01*
X51078Y118761D01*
X52567Y119756D01*
X61723Y128912D01*
X68314D01*
X73470Y123756D01*
X74959Y122761D01*
X76536Y122447D01*
X79505Y119478D01*
X79683Y118128D01*
X80792Y115453D01*
X81000Y115181D01*
Y111000D01*
X85798D01*
X87528Y110283D01*
X90400Y109905D01*
X93272Y110283D01*
X95002Y111000D01*
X104000D01*
X107941Y107059D01*
Y72000D01*
X108174Y70830D01*
X108815Y69871D01*
X105000Y67205D01*
X93806D01*
X92572Y67717D01*
X89700Y68095D01*
X86828Y67717D01*
X85594Y67205D01*
X81778D01*
X75778Y61205D01*
Y51222D01*
X113795Y13205D01*
X119099D01*
X119174Y12830D01*
X119837Y11837D01*
X120829Y11174D01*
X122000Y10941D01*
X333000D01*
X333108Y10963D01*
X333217Y10949D01*
X333690Y11078D01*
X334170Y11174D01*
X334262Y11235D01*
X334368Y11264D01*
X338250Y13205D01*
X378778D01*
X404778Y39205D01*
X403778Y40205D01*
X403778Y78778D01*
X416181Y91181D01*
X416233Y91215D01*
X416305Y91234D01*
X416726Y91545D01*
X417163Y91837D01*
X417204Y91899D01*
X417264Y91944D01*
X420440Y95440D01*
X456778Y131778D01*
X456778Y155000D01*
X429862D01*
X420778Y162000D01*
Y194546D01*
X421636Y195664D01*
X423295Y196937D01*
X424384Y197388D01*
X425377Y198051D01*
X430163Y202837D01*
X430826Y203829D01*
X431059Y205000D01*
X431059Y205000D01*
Y233486D01*
X437573Y240000D01*
X455937Y240000D01*
X456000Y240000D01*
X457000Y240500D01*
X457000Y240652D01*
Y259500D01*
X454484D01*
X448778Y265205D01*
X422778D01*
X416778Y271205D01*
X416778Y323222D01*
X415059Y324941D01*
Y326000D01*
X414826Y327170D01*
X414163Y328163D01*
X412163Y330163D01*
X411171Y330826D01*
X410000Y331059D01*
X410000Y331059D01*
X408941D01*
X401250Y338750D01*
Y339250D01*
X400750D01*
X399778Y340222D01*
X399778Y367205D01*
X358205Y367206D01*
X329778Y338778D01*
X329778Y332205D01*
X333778Y328205D01*
X337092D01*
X338153Y327392D01*
X340828Y326283D01*
X343700Y325905D01*
X346572Y326283D01*
X349247Y327392D01*
X351545Y329155D01*
X353308Y331453D01*
X353814Y332673D01*
X354256Y332761D01*
X355744Y333756D01*
X362194Y340205D01*
X380778D01*
Y333205D01*
X380462Y332889D01*
X379250Y332750D01*
Y332750D01*
X364750D01*
Y331205D01*
X361778D01*
X354778Y324205D01*
Y310205D01*
X350632Y306059D01*
X281750Y306059D01*
X281328Y305975D01*
X280899Y305938D01*
X280747Y305859D01*
X280580Y305826D01*
X280222Y305587D01*
X279839Y305389D01*
X279610Y305205D01*
X273928D01*
X269778Y301055D01*
Y291205D01*
X161120D01*
X154059Y298267D01*
Y323000D01*
X154059Y323000D01*
X153826Y324170D01*
X153778Y324242D01*
Y326205D01*
X147778Y332205D01*
X96778D01*
X89778Y325205D01*
Y283205D01*
X95778D01*
X112778Y266205D01*
X207778D01*
X220778Y253205D01*
X223778D01*
X227941Y249042D01*
Y247368D01*
X226778Y246205D01*
Y183205D01*
X193120D01*
X191059Y185267D01*
Y196733D01*
X195163Y200837D01*
X195363Y201137D01*
X195663Y201337D01*
X206163Y211837D01*
X206826Y212829D01*
X207059Y214000D01*
X207059Y214000D01*
Y249000D01*
X206826Y250171D01*
X206163Y251163D01*
X206163Y251163D01*
X202163Y255163D01*
X201171Y255826D01*
X201155Y255829D01*
X200778Y256205D01*
X180778D01*
X169778Y245205D01*
X127778D01*
X112632Y230059D01*
X82000D01*
X80829Y229826D01*
X79901Y229205D01*
X9778D01*
Y359329D01*
X11048Y359930D01*
X13556Y357872D01*
X17117Y355969D01*
X20981Y354797D01*
X25000Y354401D01*
X29019Y354797D01*
X32883Y355969D01*
X36444Y357872D01*
X39566Y360434D01*
X42128Y363556D01*
X44031Y367117D01*
X45203Y370981D01*
X45599Y375000D01*
X45203Y379019D01*
X44031Y382883D01*
X42128Y386444D01*
X40083Y388935D01*
X40684Y390205D01*
X459316D01*
X459917Y388935D01*
D02*
G37*
G36*
X145000Y329000D02*
X151000Y323000D01*
Y297000D01*
X160000Y288000D01*
X267000Y288000D01*
X273000Y275000D01*
Y213000D01*
Y194000D01*
X261000Y182000D01*
X234000Y182000D01*
X231000Y185000D01*
Y252000D01*
X212000Y271000D01*
X113000D01*
X94000Y290000D01*
X94000Y322000D01*
X101000Y329000D01*
X145000Y329000D01*
D02*
G37*
G36*
X78941Y191000D02*
X78941Y191000D01*
X79000Y190704D01*
Y189118D01*
X82153Y186521D01*
X111837Y156837D01*
X112829Y156174D01*
X114000Y155941D01*
X114000Y155941D01*
X160059D01*
X161000Y155000D01*
Y153840D01*
X160264Y152368D01*
X160235Y152262D01*
X160174Y152170D01*
X160078Y151690D01*
X159949Y151217D01*
X159963Y151108D01*
X159941Y151000D01*
Y118250D01*
X160174Y117079D01*
X160191Y117054D01*
Y106809D01*
X156809D01*
Y107250D01*
X156576Y108420D01*
X156310Y108818D01*
X155913Y109413D01*
X155913Y109413D01*
X153163Y112163D01*
X152170Y112826D01*
X151000Y113059D01*
X151000Y113059D01*
X132941D01*
X46000Y200000D01*
X45860D01*
X45826Y200170D01*
X45163Y201163D01*
X44170Y201826D01*
X43000Y202059D01*
X33425D01*
X32255Y201826D01*
X30234Y200989D01*
X27900Y200682D01*
X25566Y200989D01*
X23545Y201826D01*
X22375Y202059D01*
X18000D01*
X16830Y201826D01*
X15837Y201163D01*
X14674Y200000D01*
X12000D01*
Y163000D01*
X12941Y162059D01*
Y161000D01*
X12956Y160924D01*
X12945Y160848D01*
X13072Y160342D01*
X13174Y159830D01*
X13217Y159765D01*
X13236Y159691D01*
X13547Y159271D01*
X13837Y158837D01*
X13901Y158794D01*
X13947Y158732D01*
X14395Y158464D01*
X14829Y158174D01*
X14905Y158159D01*
X14971Y158119D01*
X17941Y157059D01*
X18000Y157000D01*
X18106D01*
X21971Y155619D01*
X22488Y155543D01*
X23000Y155441D01*
X68233D01*
X83000Y140674D01*
Y138000D01*
X82000Y137000D01*
X73076D01*
X71971Y137739D01*
X70215Y138088D01*
X59822D01*
X58067Y137739D01*
X56578Y136744D01*
X51834Y132000D01*
X24309D01*
X23941Y132368D01*
X22949Y133031D01*
X21778Y133264D01*
X21778Y133264D01*
X9778D01*
X9743Y133257D01*
X6000Y137000D01*
Y220000D01*
X5000Y221000D01*
X10147Y226147D01*
X78941D01*
Y191000D01*
D02*
G37*
G36*
X412000Y326000D02*
Y322000D01*
X412000Y257250D01*
X409750D01*
Y247750D01*
X415600D01*
X428000Y240000D01*
Y205000D01*
X423214Y200214D01*
X421753Y199608D01*
X419455Y197845D01*
X417691Y195547D01*
X417086Y194086D01*
X417000Y194000D01*
Y193878D01*
X416583Y192872D01*
X416205Y190000D01*
X416583Y187128D01*
X417000Y186122D01*
Y139000D01*
X416000D01*
X413252Y136252D01*
X409750D01*
Y126752D01*
X411000D01*
Y126000D01*
X419000Y126000D01*
X426000Y119000D01*
X426000Y106111D01*
X415000Y94000D01*
X367250D01*
Y95250D01*
X357750D01*
Y90750D01*
X356000Y89000D01*
Y75000D01*
X347000Y71000D01*
X337000Y61000D01*
Y16000D01*
X333000Y14000D01*
X122000D01*
Y45000D01*
X125000Y48000D01*
X130500D01*
Y53500D01*
X152000Y75000D01*
Y92000D01*
X153172Y93172D01*
X164000D01*
Y73768D01*
X139616Y49384D01*
X138732Y48061D01*
X138681Y47802D01*
X138422Y46500D01*
X138422Y46500D01*
Y46422D01*
X133000Y41000D01*
X133000Y23000D01*
X137000Y19000D01*
X216000Y19000D01*
X227000Y30000D01*
X227000Y81000D01*
X243672Y97672D01*
X254000D01*
X254000Y70000D01*
X235490Y51490D01*
Y20350D01*
X236000Y19840D01*
Y19500D01*
X236340D01*
X237000Y18840D01*
X237160Y19000D01*
X320000D01*
X326000Y25000D01*
Y74230D01*
X339884Y88113D01*
X339884Y88113D01*
X340768Y89437D01*
X341078Y90997D01*
Y91078D01*
X347672Y97672D01*
X362000D01*
X362000Y97672D01*
X362000Y97672D01*
X389750D01*
X389750Y97672D01*
X391052Y97931D01*
X391311Y97982D01*
X392634Y98866D01*
X392768Y99000D01*
X398471D01*
X407000Y109357D01*
X407000Y113508D01*
X407018Y113534D01*
X407328Y115095D01*
Y138408D01*
X407518Y138691D01*
X407828Y140252D01*
X407518Y141813D01*
X407328Y142096D01*
Y211328D01*
X415000Y219000D01*
Y231000D01*
X408000Y238000D01*
Y247000D01*
X407328Y247672D01*
Y251664D01*
X407018Y253225D01*
X406134Y254548D01*
X405298Y255384D01*
X405000Y255583D01*
Y299000D01*
X379571D01*
X373571Y292000D01*
X296000Y292000D01*
Y175000D01*
X277000Y159000D01*
X268000Y159000D01*
X114000D01*
X82000Y191000D01*
Y227000D01*
X116000D01*
X131000Y242000D01*
X172000Y242000D01*
Y243000D01*
X182000Y253000D01*
X200000D01*
X204000Y249000D01*
Y214000D01*
X193500Y203500D01*
X193000D01*
Y203000D01*
X188000Y198000D01*
Y184000D01*
X193000Y179000D01*
X233704D01*
X234000Y178941D01*
X234000Y178941D01*
X261000Y178941D01*
X261295Y179000D01*
X264000D01*
X278000Y193000D01*
Y300000D01*
X281750Y303000D01*
X368683Y303000D01*
X369659Y302348D01*
X372000Y301882D01*
X374341Y302348D01*
X375317Y303000D01*
X383000D01*
X389000Y309000D01*
Y313159D01*
X389118Y313750D01*
X389000Y314341D01*
X389000Y327400D01*
X392000Y328000D01*
X410000D01*
X412000Y326000D01*
D02*
G37*
G36*
X400000Y260600D02*
X388000Y258200D01*
X387750Y257250D01*
X387750Y257250D01*
Y247750D01*
X399172D01*
Y244250D01*
X387750D01*
Y234750D01*
X388000D01*
Y136252D01*
X387750D01*
Y126752D01*
X399171D01*
Y123252D01*
X387750D01*
Y122000D01*
X365000D01*
X360250Y117250D01*
X357750D01*
Y105828D01*
X354250D01*
Y117250D01*
X353000D01*
Y118000D01*
X351000Y120000D01*
X262000D01*
X259250Y117250D01*
X255750D01*
Y105828D01*
X252250D01*
Y117250D01*
X250750D01*
X249000Y119000D01*
X248000Y118000D01*
X176250D01*
Y118250D01*
X166750D01*
Y110644D01*
X166672Y110250D01*
X166672Y110250D01*
Y102672D01*
X165328Y101328D01*
X143000D01*
Y102500D01*
X130000D01*
Y100000D01*
X128000Y98000D01*
Y89000D01*
Y70000D01*
X127000Y69000D01*
X114000D01*
X111000Y72000D01*
Y117000D01*
X69500Y158500D01*
X23000D01*
X16000Y161000D01*
Y175000D01*
Y197000D01*
X18000Y199000D01*
X22375D01*
X24767Y198009D01*
X27900Y197596D01*
X31033Y198009D01*
X33425Y199000D01*
X43000D01*
Y198000D01*
X131000Y110000D01*
X151000D01*
X153750Y107250D01*
Y103750D01*
X163250D01*
Y118250D01*
X163000D01*
Y151000D01*
X165000Y155000D01*
X280611Y155000D01*
X301000Y174316D01*
X301000Y288000D01*
X373332D01*
X376000Y288000D01*
X375729Y288271D01*
X375606Y288675D01*
X375734Y289837D01*
X375800Y289936D01*
X375894Y290009D01*
X380978Y295941D01*
X400000D01*
X400000Y260600D01*
D02*
G37*
%LPC*%
G36*
X453700Y306095D02*
X450828Y305717D01*
X448153Y304608D01*
X445855Y302845D01*
X444091Y300547D01*
X442983Y297872D01*
X442605Y295000D01*
X442983Y292128D01*
X444091Y289453D01*
X445855Y287155D01*
X448153Y285392D01*
X450828Y284283D01*
X453700Y283905D01*
X456572Y284283D01*
X458041Y284892D01*
X465422Y277511D01*
Y259500D01*
X463000D01*
Y240500D01*
X476000D01*
Y259500D01*
X473578D01*
Y279200D01*
X473578Y279200D01*
X473268Y280761D01*
X472384Y282084D01*
X463808Y290659D01*
X464417Y292128D01*
X464795Y295000D01*
X464417Y297872D01*
X463308Y300547D01*
X461545Y302845D01*
X459248Y304608D01*
X456572Y305717D01*
X453700Y306095D01*
D02*
G37*
G36*
X452700Y201095D02*
X449828Y200717D01*
X447152Y199608D01*
X444855Y197845D01*
X443092Y195547D01*
X441983Y192872D01*
X441605Y190000D01*
X441983Y187128D01*
X443092Y184453D01*
X444855Y182155D01*
X447152Y180392D01*
X449828Y179283D01*
X452700Y178905D01*
X455572Y179283D01*
X457041Y179892D01*
X463422Y173511D01*
Y154500D01*
X462000D01*
Y135500D01*
X475000D01*
Y154500D01*
X471578D01*
Y175200D01*
X471268Y176761D01*
X470384Y178084D01*
X470384Y178084D01*
X462808Y185659D01*
X463417Y187128D01*
X463795Y190000D01*
X463417Y192872D01*
X462309Y195547D01*
X460545Y197845D01*
X458247Y199608D01*
X455572Y200717D01*
X452700Y201095D01*
D02*
G37*
%LPD*%
D10*
X121000Y73500D02*
D03*
Y54500D02*
D03*
X38000Y142000D02*
D03*
Y123000D02*
D03*
X14000Y142500D02*
D03*
Y123500D02*
D03*
D12*
X448500Y136500D02*
Y146000D01*
X363000Y58000D02*
Y88000D01*
X231000Y111000D02*
X232000Y110000D01*
X333000D02*
X349500D01*
X141407Y97250D02*
X170000D01*
X395000Y131502D02*
X403250Y139752D01*
Y115095D02*
Y139752D01*
X400906Y112752D02*
X403250Y115095D01*
X400752Y112752D02*
X400906D01*
X389750Y101750D02*
X400752Y112752D01*
X362000Y101750D02*
X389750D01*
X171000D02*
X229750D01*
X212700Y84700D02*
X229750Y101750D01*
X212700Y50000D02*
Y84700D01*
X403250Y140752D02*
X403750Y140252D01*
X395000Y252500D02*
X402414D01*
X403250Y251664D01*
Y140752D02*
Y251664D01*
X271250Y101750D02*
X337000D01*
X229750D02*
X271250D01*
X263000Y110000D02*
X271250Y101750D01*
X260500Y110000D02*
X263000D01*
X170750Y102000D02*
X171000Y101750D01*
X337000D02*
X362000D01*
X337000Y90997D02*
Y101750D01*
X312700Y66697D02*
X337000Y90997D01*
X312700Y50000D02*
Y66697D01*
X362000Y101750D02*
X362500Y102250D01*
Y110000D01*
X170750Y102000D02*
Y110250D01*
Y98000D02*
Y102000D01*
Y110250D02*
X171500Y111000D01*
X170000Y97250D02*
X170750Y98000D01*
X136500Y93000D02*
X137157D01*
X141407Y97250D01*
X372000Y308000D02*
Y321500D01*
X381000Y328000D02*
X383000Y326000D01*
Y313750D02*
Y326000D01*
X372000Y328000D02*
X381000D01*
X395000Y239500D02*
X395000Y239500D01*
X395000Y216000D02*
Y239500D01*
X375000Y110000D02*
X386498D01*
X395000Y118502D01*
X232000Y110000D02*
X247500D01*
X260500Y53500D02*
Y88000D01*
X344500Y29000D02*
Y39500D01*
X363000Y58000D01*
X417000Y131502D02*
X443502D01*
X467500Y146000D02*
Y175200D01*
X452700Y190000D02*
X467500Y175200D01*
X469500Y250000D02*
Y279200D01*
X453700Y295000D02*
X469500Y279200D01*
X417000Y252500D02*
X448000D01*
X450500Y250000D01*
X242500Y29000D02*
Y35500D01*
X260500Y53500D01*
X390300Y34300D02*
Y50000D01*
X363500Y29000D02*
X385000D01*
X390300Y34300D01*
X171500Y75500D02*
Y89000D01*
X142500Y30000D02*
Y46500D01*
X171500Y75500D01*
X443502Y131502D02*
X448500Y136500D01*
D13*
X96500Y254000D02*
D03*
X66000Y301000D02*
D03*
X126500D02*
D03*
X475000Y375000D02*
D03*
Y25000D02*
D03*
X25000Y375000D02*
D03*
Y25000D02*
D03*
D14*
X104100Y184300D02*
D03*
X27900D02*
D03*
Y209700D02*
D03*
D15*
X104100D02*
D03*
D16*
X64300Y57000D02*
D03*
X89700D02*
D03*
X65000Y121000D02*
D03*
X90400D02*
D03*
X343700Y337000D02*
D03*
X318300D02*
D03*
X453700Y295000D02*
D03*
X428300D02*
D03*
X452700Y190000D02*
D03*
X427300D02*
D03*
X390300Y50000D02*
D03*
X415700D02*
D03*
X287300D02*
D03*
X312700D02*
D03*
X187300D02*
D03*
X212700D02*
D03*
D17*
X383000Y292000D02*
D03*
X372000Y308000D02*
D03*
X383000Y313750D02*
D03*
X395000Y216000D02*
D03*
X375000Y110000D02*
D03*
X333000D02*
D03*
X232000D02*
D03*
X133500Y136000D02*
D03*
X146000Y234000D02*
D03*
X150000Y359000D02*
D03*
D18*
X220500Y194000D02*
D03*
X239500D02*
D03*
X180500D02*
D03*
X199500D02*
D03*
X117500Y93000D02*
D03*
X136500D02*
D03*
X372500Y357000D02*
D03*
X391500D02*
D03*
X469500Y250000D02*
D03*
X450500D02*
D03*
X468500Y145000D02*
D03*
X449500D02*
D03*
X363500Y29000D02*
D03*
X344500D02*
D03*
X261500D02*
D03*
X242500D02*
D03*
X161500Y30000D02*
D03*
X142500D02*
D03*
D19*
X394000Y334500D02*
D03*
Y321500D02*
D03*
X372000Y334500D02*
D03*
Y328000D02*
D03*
Y321500D02*
D03*
X417000Y252500D02*
D03*
Y239500D02*
D03*
X395000Y252500D02*
D03*
Y246000D02*
D03*
Y239500D02*
D03*
X417000Y131502D02*
D03*
Y118502D02*
D03*
X395000Y131502D02*
D03*
Y125002D02*
D03*
Y118502D02*
D03*
D20*
X362500Y88000D02*
D03*
X349500D02*
D03*
X362500Y110000D02*
D03*
X356000D02*
D03*
X349500D02*
D03*
X260500Y88000D02*
D03*
X247500D02*
D03*
X260500Y110000D02*
D03*
X254000D02*
D03*
X247500D02*
D03*
X171500Y89000D02*
D03*
X158500D02*
D03*
X171500Y111000D02*
D03*
X165000D02*
D03*
X158500D02*
D03*
D21*
X215000Y340000D02*
D03*
D22*
X189600Y234000D02*
D03*
X215000D02*
D03*
X240400D02*
D03*
D23*
X38000Y123000D02*
X49322D01*
X59822Y133500D01*
X70215D01*
X76715Y127000D01*
X81685D01*
X82185Y127500D01*
X83900D01*
X90400Y121000D01*
X287300Y35300D02*
Y50000D01*
X187300Y36300D02*
Y50000D01*
X161500Y30000D02*
X181000D01*
X187300Y36300D01*
X261500Y29000D02*
X281000D01*
X287300Y35300D01*
X394000Y334500D02*
Y354500D01*
X391500Y357000D02*
X394000Y354500D01*
X343700Y337000D02*
X352500D01*
X372500Y357000D01*
X89700Y57000D02*
X118500D01*
X121000Y54500D01*
M02*
