G04 Layer_Color=128*
%FSLAX44Y44*%
%MOMM*%
G71*
G01*
G75*
%ADD10R,1.3000X0.7000*%
%ADD18R,0.7000X1.3000*%
%ADD19R,0.8500X0.3500*%
%ADD20R,0.3500X0.8500*%
%ADD21R,10.7000X8.6000*%
%ADD22R,1.0000X3.4000*%
D10*
X121000Y73500D02*
D03*
Y54500D02*
D03*
X38000Y142000D02*
D03*
Y123000D02*
D03*
X14000Y142500D02*
D03*
Y123500D02*
D03*
D18*
X220500Y194000D02*
D03*
X239500D02*
D03*
X180500D02*
D03*
X199500D02*
D03*
X117500Y93000D02*
D03*
X136500D02*
D03*
X372500Y357000D02*
D03*
X391500D02*
D03*
X469500Y250000D02*
D03*
X450500D02*
D03*
X468500Y145000D02*
D03*
X449500D02*
D03*
X363500Y29000D02*
D03*
X344500D02*
D03*
X261500D02*
D03*
X242500D02*
D03*
X161500Y30000D02*
D03*
X142500D02*
D03*
D19*
X394000Y334500D02*
D03*
Y321500D02*
D03*
X372000Y334500D02*
D03*
Y328000D02*
D03*
Y321500D02*
D03*
X417000Y252500D02*
D03*
Y239500D02*
D03*
X395000Y252500D02*
D03*
Y246000D02*
D03*
Y239500D02*
D03*
X417000Y131502D02*
D03*
Y118502D02*
D03*
X395000Y131502D02*
D03*
Y125002D02*
D03*
Y118502D02*
D03*
D20*
X362500Y88000D02*
D03*
X349500D02*
D03*
X362500Y110000D02*
D03*
X356000D02*
D03*
X349500D02*
D03*
X260500Y88000D02*
D03*
X247500D02*
D03*
X260500Y110000D02*
D03*
X254000D02*
D03*
X247500D02*
D03*
X171500Y89000D02*
D03*
X158500D02*
D03*
X171500Y111000D02*
D03*
X165000D02*
D03*
X158500D02*
D03*
D21*
X215000Y340000D02*
D03*
D22*
X189600Y234000D02*
D03*
X215000D02*
D03*
X240400D02*
D03*
M02*
