G04 Layer_Color=32896*
%FSLAX44Y44*%
%MOMM*%
G71*
G01*
G75*
%ADD12C,0.2000*%
%ADD25C,0.1500*%
%ADD39C,0.1000*%
D12*
X247000Y184000D02*
Y204000D01*
X213000D02*
X247000D01*
X213000Y184000D02*
Y204000D01*
Y184000D02*
X247000D01*
X173000Y204000D02*
X207000D01*
Y184000D02*
Y204000D01*
X173000Y184000D02*
X207000D01*
X173000D02*
Y204000D01*
X131160Y47490D02*
Y80510D01*
X110840Y47490D02*
X131160D01*
X110840D02*
Y80510D01*
X131160D01*
X48160Y115990D02*
Y149010D01*
X27840Y115990D02*
X48160D01*
X27840D02*
Y149010D01*
X48160D01*
X110490Y103160D02*
X143510D01*
Y82840D02*
Y103160D01*
X110490Y82840D02*
X143510D01*
X110490D02*
Y103160D01*
X24160Y116490D02*
Y149510D01*
X3840Y116490D02*
X24160D01*
X3840D02*
Y149510D01*
X24160D01*
X365490Y367160D02*
X398510D01*
Y346840D02*
Y367160D01*
X365490Y346840D02*
X398510D01*
X365490D02*
Y367160D01*
X443490Y239840D02*
X476510D01*
X443490D02*
Y260160D01*
X476510D01*
Y239840D02*
Y260160D01*
X442490Y134840D02*
X475510D01*
X442490D02*
Y155160D01*
X475510D01*
Y134840D02*
Y155160D01*
X337490Y18840D02*
X370510D01*
X337490D02*
Y39160D01*
X370510D01*
Y18840D02*
Y39160D01*
X235490Y18840D02*
X268510D01*
X235490D02*
Y39160D01*
X268510D01*
Y18840D02*
Y39160D01*
X135490Y19840D02*
X168510D01*
X135490D02*
Y40160D01*
X168510D01*
Y19840D02*
Y40160D01*
X158000Y213000D02*
Y388000D01*
Y213000D02*
X272150D01*
Y388000D01*
X158000D02*
X272150D01*
X256000Y191000D02*
X252668D01*
X254334D01*
Y200997D01*
X256000Y199331D01*
D25*
X153997Y373000D02*
X147333D01*
X146000Y374333D01*
Y376999D01*
X147333Y378332D01*
X153997D01*
X152664Y380997D02*
X153997Y382330D01*
Y384996D01*
X152664Y386329D01*
X151332D01*
X149999Y384996D01*
Y383663D01*
Y384996D01*
X148666Y386329D01*
X147333D01*
X146000Y384996D01*
Y382330D01*
X147333Y380997D01*
X246665Y171332D02*
X247997Y169999D01*
Y167333D01*
X246665Y166000D01*
X241333D01*
X240000Y167333D01*
Y169999D01*
X241333Y171332D01*
X240000Y179329D02*
Y173997D01*
X245332Y179329D01*
X246665D01*
X247997Y177996D01*
Y175330D01*
X246665Y173997D01*
X203664Y174332D02*
X204997Y172999D01*
Y170333D01*
X203664Y169000D01*
X198333D01*
X197000Y170333D01*
Y172999D01*
X198333Y174332D01*
X197000Y176997D02*
Y179663D01*
Y178330D01*
X204997D01*
X203664Y176997D01*
X275997Y82000D02*
X269333D01*
X268000Y83333D01*
Y85999D01*
X269333Y87332D01*
X275997D01*
X268000Y95329D02*
Y89997D01*
X273332Y95329D01*
X274664D01*
X275997Y93996D01*
Y91330D01*
X274664Y89997D01*
X38000Y154000D02*
X45997D01*
Y157999D01*
X44665Y159332D01*
X41999D01*
X40666Y157999D01*
Y154000D01*
Y156666D02*
X38000Y159332D01*
Y161997D02*
Y164663D01*
Y163330D01*
X45997D01*
X44665Y161997D01*
Y168662D02*
X45997Y169995D01*
Y172661D01*
X44665Y173994D01*
X39333D01*
X38000Y172661D01*
Y169995D01*
X39333Y168662D01*
X44665D01*
X5000Y99000D02*
X12997D01*
Y102999D01*
X11665Y104332D01*
X8999D01*
X7666Y102999D01*
Y99000D01*
Y101666D02*
X5000Y104332D01*
X11665Y106997D02*
X12997Y108330D01*
Y110996D01*
X11665Y112329D01*
X10332D01*
X8999Y110996D01*
X7666Y112329D01*
X6333D01*
X5000Y110996D01*
Y108330D01*
X6333Y106997D01*
X7666D01*
X8999Y108330D01*
X10332Y106997D01*
X11665D01*
X8999Y108330D02*
Y110996D01*
X186997Y88000D02*
X180333D01*
X179000Y89333D01*
Y91999D01*
X180333Y93332D01*
X186997D01*
X179000Y95997D02*
Y98663D01*
Y97330D01*
X186997D01*
X185665Y95997D01*
X98000Y85000D02*
X105997D01*
Y88999D01*
X104664Y90332D01*
X101999D01*
X100666Y88999D01*
Y85000D01*
Y87666D02*
X98000Y90332D01*
X99333Y92997D02*
X98000Y94330D01*
Y96996D01*
X99333Y98329D01*
X104664D01*
X105997Y96996D01*
Y94330D01*
X104664Y92997D01*
X103332D01*
X101999Y94330D01*
Y98329D01*
X112000Y26000D02*
X119997D01*
Y29999D01*
X118665Y31332D01*
X115999D01*
X114666Y29999D01*
Y26000D01*
Y28666D02*
X112000Y31332D01*
Y33997D02*
Y36663D01*
Y35330D01*
X119997D01*
X118665Y33997D01*
X112000Y40662D02*
Y43328D01*
Y41995D01*
X119997D01*
X118665Y40662D01*
X166000Y45000D02*
X173997D01*
Y48999D01*
X172665Y50332D01*
X169999D01*
X168666Y48999D01*
Y45000D01*
Y47666D02*
X166000Y50332D01*
Y52997D02*
Y55663D01*
Y54330D01*
X173997D01*
X172665Y52997D01*
X267000Y43000D02*
X274997D01*
Y46999D01*
X273664Y48332D01*
X270999D01*
X269666Y46999D01*
Y43000D01*
Y45666D02*
X267000Y48332D01*
Y56329D02*
Y50997D01*
X272332Y56329D01*
X273664D01*
X274997Y54996D01*
Y52330D01*
X273664Y50997D01*
X376997Y80000D02*
X370333D01*
X369000Y81333D01*
Y83999D01*
X370333Y85332D01*
X376997D01*
Y93329D02*
Y87997D01*
X372999D01*
X374332Y90663D01*
Y91996D01*
X372999Y93329D01*
X370333D01*
X369000Y91996D01*
Y89330D01*
X370333Y87997D01*
X434997Y110000D02*
X428333D01*
X427000Y111333D01*
Y113999D01*
X428333Y115332D01*
X434997D01*
X427000Y121996D02*
X434997D01*
X430999Y117997D01*
Y123329D01*
X433997Y231000D02*
X427333D01*
X426000Y232333D01*
Y234999D01*
X427333Y236332D01*
X433997D01*
Y244329D02*
X432664Y241663D01*
X429999Y238997D01*
X427333D01*
X426000Y240330D01*
Y242996D01*
X427333Y244329D01*
X428666D01*
X429999Y242996D01*
Y238997D01*
X410997Y324000D02*
X404333D01*
X403000Y325333D01*
Y327999D01*
X404333Y329332D01*
X410997D01*
Y331997D02*
Y337329D01*
X409664D01*
X404333Y331997D01*
X403000D01*
Y348000D02*
X410997D01*
Y351999D01*
X409664Y353332D01*
X406999D01*
X405666Y351999D01*
Y348000D01*
Y350666D02*
X403000Y353332D01*
X410997Y355997D02*
Y361329D01*
X409664D01*
X404333Y355997D01*
X403000D01*
X481000Y242000D02*
X488997D01*
Y245999D01*
X487664Y247332D01*
X484999D01*
X483666Y245999D01*
Y242000D01*
Y244666D02*
X481000Y247332D01*
X488997Y255329D02*
X487664Y252663D01*
X484999Y249997D01*
X482333D01*
X481000Y251330D01*
Y253996D01*
X482333Y255329D01*
X483666D01*
X484999Y253996D01*
Y249997D01*
X376000Y11000D02*
X383997D01*
Y14999D01*
X382664Y16332D01*
X379999D01*
X378666Y14999D01*
Y11000D01*
Y13666D02*
X376000Y16332D01*
Y22996D02*
X383997D01*
X379999Y18997D01*
Y24329D01*
X480000Y136000D02*
X487997D01*
Y139999D01*
X486665Y141332D01*
X483999D01*
X482666Y139999D01*
Y136000D01*
Y138666D02*
X480000Y141332D01*
X487997Y149329D02*
Y143997D01*
X483999D01*
X485332Y146663D01*
Y147996D01*
X483999Y149329D01*
X481333D01*
X480000Y147996D01*
Y145330D01*
X481333Y143997D01*
D39*
X378000Y318000D02*
X388000D01*
X378000Y338000D02*
X388000D01*
X394000Y326000D02*
Y330000D01*
X401000Y236000D02*
X411000D01*
X401000Y256000D02*
X411000D01*
X417000Y244000D02*
Y248000D01*
X346000Y94000D02*
Y104000D01*
X366000Y94000D02*
Y104000D01*
X354000Y88000D02*
X358000D01*
X401000Y115002D02*
X411000D01*
X401000Y135002D02*
X411000D01*
X417000Y123002D02*
Y127002D01*
X244000Y94000D02*
Y104000D01*
X264000Y94000D02*
Y104000D01*
X252000Y88000D02*
X256000D01*
X155000Y95000D02*
Y105000D01*
X175000Y95000D02*
Y105000D01*
X163000Y89000D02*
X167000D01*
X364000Y323000D02*
X365000D01*
X364500D01*
Y320001D01*
X364000Y320501D01*
X387000Y241000D02*
X388000D01*
X387500D01*
Y238001D01*
X387000Y238501D01*
X351000Y118000D02*
Y117000D01*
Y117500D01*
X348001D01*
X348501Y118000D01*
X387000Y120002D02*
X387999D01*
X387499D01*
Y117003D01*
X387000Y117503D01*
X249000Y118000D02*
Y117000D01*
Y117500D01*
X246001D01*
X246501Y118000D01*
X160000Y119000D02*
Y118000D01*
Y118500D01*
X157001D01*
X157501Y119000D01*
M02*
