G04 Layer_Physical_Order=1*
G04 Layer_Color=255*
%FSLAX44Y44*%
%MOMM*%
G71*
G01*
G75*
%ADD10R,1.3000X0.7000*%
%ADD11R,0.8000X0.8000*%
%ADD12C,0.2000*%
%ADD13C,3.5000*%
%ADD14C,1.8000*%
%ADD15R,1.8000X1.8000*%
%ADD16C,1.6000*%
%ADD17C,0.6000*%
G36*
X464445Y394000D02*
X464754Y392768D01*
X463556Y392128D01*
X460434Y389566D01*
X457872Y386444D01*
X455969Y382883D01*
X454797Y379019D01*
X454401Y375000D01*
X454797Y370981D01*
X455969Y367117D01*
X457872Y363556D01*
X460434Y360434D01*
X463556Y357872D01*
X467117Y355969D01*
X470981Y354797D01*
X475000Y354401D01*
X479019Y354797D01*
X482883Y355969D01*
X486444Y357872D01*
X489566Y360434D01*
X491730Y363071D01*
X493000Y362617D01*
Y37383D01*
X491730Y36929D01*
X489566Y39566D01*
X486444Y42128D01*
X482883Y44031D01*
X479019Y45203D01*
X475000Y45599D01*
X470981Y45203D01*
X467117Y44031D01*
X463556Y42128D01*
X460434Y39566D01*
X457872Y36444D01*
X455969Y32883D01*
X454797Y29019D01*
X454401Y25000D01*
X454797Y20981D01*
X455969Y17117D01*
X457872Y13556D01*
X460434Y10434D01*
X463556Y7872D01*
X466569Y6262D01*
X466251Y4992D01*
X33749D01*
X33431Y6262D01*
X36444Y7872D01*
X39566Y10434D01*
X42128Y13556D01*
X44031Y17117D01*
X45203Y20981D01*
X45599Y25000D01*
X45203Y29019D01*
X44031Y32883D01*
X42128Y36444D01*
X39566Y39566D01*
X36444Y42128D01*
X32883Y44031D01*
X29019Y45203D01*
X25000Y45599D01*
X20981Y45203D01*
X17117Y44031D01*
X13556Y42128D01*
X10434Y39566D01*
X7872Y36444D01*
X5969Y32883D01*
X5270Y30579D01*
X4000Y30768D01*
X4000Y369232D01*
X5270Y369420D01*
X5969Y367117D01*
X7872Y363556D01*
X10434Y360434D01*
X13556Y357872D01*
X17117Y355969D01*
X20981Y354797D01*
X25000Y354401D01*
X29019Y354797D01*
X32883Y355969D01*
X35671Y357459D01*
X36941Y356698D01*
Y348000D01*
X36941Y348000D01*
X37174Y346829D01*
X37837Y345837D01*
X64282Y319393D01*
X64655Y319143D01*
X65003Y318858D01*
X65148Y318814D01*
X65274Y318729D01*
X65715Y318642D01*
X66145Y318511D01*
X69419Y318189D01*
X72707Y317192D01*
X75737Y315572D01*
X78393Y313393D01*
X80572Y310737D01*
X82191Y307707D01*
X82372Y307112D01*
X82444Y306978D01*
X82473Y306829D01*
X82723Y306456D01*
X82935Y306060D01*
X83052Y305963D01*
X83136Y305837D01*
X83510Y305588D01*
X83857Y305302D01*
X84002Y305258D01*
X84129Y305174D01*
X84569Y305086D01*
X84999Y304956D01*
X85150Y304971D01*
X85299Y304941D01*
X105343D01*
X106196Y304000D01*
X105901Y301000D01*
X106297Y296981D01*
X107265Y293788D01*
X107262Y293323D01*
X106830Y292336D01*
X106517Y292127D01*
X106178Y291967D01*
X106026Y291799D01*
X105837Y291673D01*
X105628Y291361D01*
X105376Y291082D01*
X105300Y290869D01*
X105174Y290681D01*
X105101Y290312D01*
X104974Y289959D01*
X104986Y289732D01*
X104941Y289510D01*
Y271082D01*
X104971Y270933D01*
X104956Y270782D01*
X105086Y270352D01*
X105174Y269911D01*
X105258Y269785D01*
X105302Y269640D01*
X105587Y269293D01*
X105837Y268919D01*
X105963Y268835D01*
X106060Y268717D01*
X108892Y266392D01*
X111072Y263737D01*
X112691Y260707D01*
X113689Y257419D01*
X114026Y254000D01*
X113689Y250581D01*
X112691Y247293D01*
X111072Y244263D01*
X108892Y241608D01*
X106060Y239283D01*
X105963Y239165D01*
X105837Y239081D01*
X105587Y238707D01*
X105302Y238360D01*
X105258Y238215D01*
X105174Y238089D01*
X105086Y237648D01*
X104956Y237218D01*
X104971Y237067D01*
X104941Y236918D01*
Y229000D01*
X105174Y227829D01*
X105837Y226837D01*
X105837Y226837D01*
X109801Y222873D01*
X109315Y221700D01*
X92100D01*
Y197700D01*
X116100D01*
Y214915D01*
X117273Y215401D01*
X120837Y211837D01*
X121830Y211174D01*
X123000Y210941D01*
X123000Y210941D01*
X161000D01*
X162171Y211174D01*
X163163Y211837D01*
X163163Y211837D01*
X175163Y223837D01*
X175826Y224830D01*
X176059Y226000D01*
X176059Y226000D01*
Y330000D01*
X175826Y331171D01*
X175163Y332163D01*
X162163Y345163D01*
X161171Y345826D01*
X160000Y346059D01*
X160000Y346059D01*
X87267D01*
X83059Y350267D01*
Y366941D01*
X99000Y366941D01*
X99000Y366941D01*
X100170Y367174D01*
X101163Y367837D01*
X106163Y372837D01*
X106163Y372837D01*
X106826Y373829D01*
X107059Y375000D01*
X107059Y375000D01*
X107059Y394000D01*
X107059Y394000D01*
X464445Y394000D01*
D02*
G37*
G36*
X104000D02*
X104000Y375000D01*
X99000Y370000D01*
X81326Y370000D01*
X74163Y377163D01*
X73170Y377826D01*
X72000Y378059D01*
X72000Y378059D01*
X63000D01*
X61829Y377826D01*
X60837Y377163D01*
X60434Y376559D01*
X51567D01*
X51163Y377163D01*
X50170Y377826D01*
X49000Y378059D01*
X47941D01*
X46000Y380000D01*
Y390000D01*
X52000Y396000D01*
X102000D01*
X104000Y394000D01*
D02*
G37*
G36*
X80000Y367000D02*
Y349000D01*
X80000D01*
X86000Y343000D01*
X160000D01*
X173000Y330000D01*
Y226000D01*
X161000Y214000D01*
X123000D01*
X108000Y229000D01*
Y236918D01*
X111066Y239434D01*
X113628Y242556D01*
X115531Y246117D01*
X116703Y249981D01*
X117099Y254000D01*
X116703Y258019D01*
X115531Y261883D01*
X113628Y265444D01*
X111066Y268566D01*
X108000Y271082D01*
Y289510D01*
X109232Y289818D01*
X109372Y289556D01*
X111934Y286434D01*
X115056Y283872D01*
X118617Y281969D01*
X122481Y280797D01*
X126500Y280401D01*
X130519Y280797D01*
X134383Y281969D01*
X137944Y283872D01*
X141066Y286434D01*
X143628Y289556D01*
X145531Y293117D01*
X146703Y296981D01*
X147099Y301000D01*
X146703Y305019D01*
X145531Y308883D01*
X143628Y312444D01*
X141066Y315566D01*
X137944Y318128D01*
X134383Y320031D01*
X130519Y321203D01*
X126500Y321599D01*
X122481Y321203D01*
X118617Y320031D01*
X115056Y318128D01*
X111934Y315566D01*
X109372Y312444D01*
X107469Y308883D01*
X107201Y308000D01*
X85299D01*
X85031Y308883D01*
X83128Y312444D01*
X80566Y315566D01*
X77444Y318128D01*
X73883Y320031D01*
X70019Y321203D01*
X66445Y321555D01*
X40000Y348000D01*
Y360963D01*
X42128Y363556D01*
X44031Y367117D01*
X45203Y370981D01*
X45599Y375000D01*
X49000D01*
Y373500D01*
X63000D01*
Y375000D01*
X72000D01*
X80000Y367000D01*
D02*
G37*
%LPC*%
G36*
X89700Y68095D02*
X86828Y67717D01*
X84153Y66609D01*
X81855Y64845D01*
X80091Y62547D01*
X78983Y59872D01*
X78605Y57000D01*
X78983Y54128D01*
X80091Y51453D01*
X81855Y49155D01*
X84153Y47392D01*
X86828Y46283D01*
X89700Y45905D01*
X92572Y46283D01*
X95247Y47392D01*
X97545Y49155D01*
X99309Y51453D01*
X100417Y54128D01*
X100795Y57000D01*
X100417Y59872D01*
X99309Y62547D01*
X97545Y64845D01*
X95247Y66609D01*
X92572Y67717D01*
X89700Y68095D01*
D02*
G37*
G36*
X90400Y132095D02*
X87528Y131717D01*
X84853Y130609D01*
X82555Y128845D01*
X80792Y126547D01*
X79683Y123872D01*
X79305Y121000D01*
X79683Y118128D01*
X80792Y115453D01*
X82555Y113155D01*
X84853Y111391D01*
X87528Y110283D01*
X90400Y109905D01*
X93272Y110283D01*
X95948Y111391D01*
X98245Y113155D01*
X100008Y115453D01*
X101117Y118128D01*
X101495Y121000D01*
X101117Y123872D01*
X100008Y126547D01*
X98245Y128845D01*
X95948Y130609D01*
X93272Y131717D01*
X90400Y132095D01*
D02*
G37*
G36*
X390300Y61095D02*
X387428Y60717D01*
X384753Y59608D01*
X382455Y57845D01*
X380691Y55547D01*
X379583Y52872D01*
X379205Y50000D01*
X379583Y47128D01*
X380691Y44453D01*
X382455Y42155D01*
X384753Y40392D01*
X387428Y39283D01*
X390300Y38905D01*
X393172Y39283D01*
X395847Y40392D01*
X398145Y42155D01*
X399908Y44453D01*
X401017Y47128D01*
X401395Y50000D01*
X401017Y52872D01*
X399908Y55547D01*
X398145Y57845D01*
X395847Y59608D01*
X393172Y60717D01*
X390300Y61095D01*
D02*
G37*
G36*
X187300D02*
X184428Y60717D01*
X181753Y59608D01*
X179455Y57845D01*
X177691Y55547D01*
X176583Y52872D01*
X176205Y50000D01*
X176583Y47128D01*
X177691Y44453D01*
X179455Y42155D01*
X181753Y40392D01*
X184428Y39283D01*
X187300Y38905D01*
X190172Y39283D01*
X192847Y40392D01*
X195145Y42155D01*
X196908Y44453D01*
X198017Y47128D01*
X198395Y50000D01*
X198017Y52872D01*
X196908Y55547D01*
X195145Y57845D01*
X192847Y59608D01*
X190172Y60717D01*
X187300Y61095D01*
D02*
G37*
G36*
X287300D02*
X284428Y60717D01*
X281753Y59608D01*
X279455Y57845D01*
X277691Y55547D01*
X276583Y52872D01*
X276205Y50000D01*
X276583Y47128D01*
X277691Y44453D01*
X279455Y42155D01*
X281753Y40392D01*
X284428Y39283D01*
X287300Y38905D01*
X290172Y39283D01*
X292847Y40392D01*
X295145Y42155D01*
X296908Y44453D01*
X298017Y47128D01*
X298395Y50000D01*
X298017Y52872D01*
X296908Y55547D01*
X295145Y57845D01*
X292847Y59608D01*
X290172Y60717D01*
X287300Y61095D01*
D02*
G37*
G36*
X27900Y221803D02*
X24767Y221391D01*
X21848Y220182D01*
X19341Y218258D01*
X17418Y215752D01*
X16209Y212833D01*
X15797Y209700D01*
X16209Y206567D01*
X17418Y203648D01*
X19341Y201141D01*
X21848Y199218D01*
X24767Y198009D01*
X26995Y197716D01*
X27566Y197640D01*
Y196360D01*
X26995Y196284D01*
X24767Y195991D01*
X21848Y194782D01*
X19341Y192859D01*
X17418Y190352D01*
X16209Y187433D01*
X15797Y184300D01*
X16209Y181167D01*
X17418Y178248D01*
X19341Y175742D01*
X21848Y173818D01*
X24767Y172609D01*
X27900Y172197D01*
X31033Y172609D01*
X33952Y173818D01*
X36458Y175742D01*
X38382Y178248D01*
X39591Y181167D01*
X40003Y184300D01*
X39591Y187433D01*
X38382Y190352D01*
X36458Y192859D01*
X33952Y194782D01*
X31033Y195991D01*
X28805Y196284D01*
X28234Y196360D01*
Y197640D01*
X28805Y197716D01*
X31033Y198009D01*
X33952Y199218D01*
X36458Y201141D01*
X38382Y203648D01*
X39591Y206567D01*
X40003Y209700D01*
X39591Y212833D01*
X38382Y215752D01*
X36458Y218258D01*
X33952Y220182D01*
X31033Y221391D01*
X27900Y221803D01*
D02*
G37*
G36*
X453700Y306095D02*
X450828Y305717D01*
X448153Y304608D01*
X445855Y302845D01*
X444091Y300547D01*
X442983Y297872D01*
X442605Y295000D01*
X442983Y292128D01*
X444091Y289453D01*
X445855Y287155D01*
X448153Y285392D01*
X450828Y284283D01*
X453700Y283905D01*
X456572Y284283D01*
X459248Y285392D01*
X461545Y287155D01*
X463308Y289453D01*
X464417Y292128D01*
X464795Y295000D01*
X464417Y297872D01*
X463308Y300547D01*
X461545Y302845D01*
X459248Y304608D01*
X456572Y305717D01*
X453700Y306095D01*
D02*
G37*
G36*
X354000Y325059D02*
X352829Y324826D01*
X351837Y324163D01*
X351837Y324163D01*
X338837Y311163D01*
X338174Y310171D01*
X337941Y309000D01*
X337941Y309000D01*
Y185267D01*
X316733Y164059D01*
X119000D01*
X118892Y164037D01*
X118783Y164051D01*
X118310Y163922D01*
X117830Y163826D01*
X117738Y163765D01*
X117632Y163736D01*
X105632Y157736D01*
X105245Y157435D01*
X104837Y157163D01*
X104776Y157071D01*
X104689Y157004D01*
X104446Y156578D01*
X104174Y156171D01*
X104153Y156063D01*
X104098Y155967D01*
X104037Y155481D01*
X103941Y155000D01*
Y102000D01*
X103941Y102000D01*
X104174Y100829D01*
X104837Y99837D01*
X104837Y99837D01*
X110837Y93837D01*
X111829Y93174D01*
X113000Y92941D01*
X113000Y92941D01*
X395000D01*
X396171Y93174D01*
X397163Y93837D01*
X397163Y93837D01*
X409163Y105837D01*
X409826Y106830D01*
X410059Y108000D01*
X410059Y108000D01*
Y255000D01*
X410059Y255000D01*
X409826Y256171D01*
X409163Y257163D01*
X381425Y284901D01*
X382051Y286071D01*
X383000Y285882D01*
X385341Y286348D01*
X387326Y287674D01*
X388652Y289659D01*
X389118Y292000D01*
X388652Y294341D01*
X387326Y296326D01*
X387078Y296491D01*
Y309259D01*
X387326Y309424D01*
X388652Y311409D01*
X389118Y313750D01*
X388652Y316091D01*
X387326Y318076D01*
X385341Y319402D01*
X383000Y319867D01*
X382040Y319677D01*
X381059Y320482D01*
Y322000D01*
X380826Y323171D01*
X380163Y324163D01*
X379170Y324826D01*
X378000Y325059D01*
X354000D01*
X354000Y325059D01*
D02*
G37*
G36*
X343700Y348095D02*
X340828Y347717D01*
X338153Y346609D01*
X335855Y344845D01*
X334091Y342547D01*
X332983Y339872D01*
X332605Y337000D01*
X332983Y334128D01*
X334091Y331453D01*
X335855Y329155D01*
X338153Y327392D01*
X340828Y326283D01*
X343700Y325905D01*
X346572Y326283D01*
X349247Y327392D01*
X351545Y329155D01*
X353308Y331453D01*
X354417Y334128D01*
X354795Y337000D01*
X354417Y339872D01*
X353308Y342547D01*
X351545Y344845D01*
X349247Y346609D01*
X346572Y347717D01*
X343700Y348095D01*
D02*
G37*
G36*
X104100Y196404D02*
X100967Y195991D01*
X98048Y194782D01*
X95541Y192859D01*
X93618Y190352D01*
X92409Y187433D01*
X91996Y184300D01*
X92409Y181167D01*
X93618Y178248D01*
X95541Y175742D01*
X98048Y173818D01*
X100967Y172609D01*
X104100Y172197D01*
X107233Y172609D01*
X110152Y173818D01*
X112659Y175742D01*
X114582Y178248D01*
X115791Y181167D01*
X116203Y184300D01*
X115791Y187433D01*
X114582Y190352D01*
X112659Y192859D01*
X110152Y194782D01*
X107233Y195991D01*
X104100Y196404D01*
D02*
G37*
G36*
X452700Y201095D02*
X449828Y200717D01*
X447152Y199608D01*
X444855Y197845D01*
X443092Y195547D01*
X441983Y192872D01*
X441605Y190000D01*
X441983Y187128D01*
X443092Y184453D01*
X444855Y182155D01*
X447152Y180392D01*
X449828Y179283D01*
X452700Y178905D01*
X455572Y179283D01*
X458247Y180392D01*
X460545Y182155D01*
X462309Y184453D01*
X463417Y187128D01*
X463795Y190000D01*
X463417Y192872D01*
X462309Y195547D01*
X460545Y197845D01*
X458247Y199608D01*
X455572Y200717D01*
X452700Y201095D01*
D02*
G37*
%LPD*%
G36*
X378000Y317067D02*
X377348Y316091D01*
X376883Y313750D01*
X377348Y311409D01*
X378000Y310433D01*
Y295317D01*
X377348Y294341D01*
X376883Y292000D01*
X377348Y289659D01*
X378000Y288683D01*
Y284000D01*
X407000Y255000D01*
Y108000D01*
X395000Y96000D01*
X113000D01*
X107000Y102000D01*
Y155000D01*
X119000Y161000D01*
X318000D01*
X341000Y184000D01*
Y309000D01*
X354000Y322000D01*
X378000D01*
Y317067D01*
D02*
G37*
D10*
X90000Y379500D02*
D03*
Y360500D02*
D03*
D11*
X56000Y380500D02*
D03*
Y365500D02*
D03*
D12*
X383000Y292000D02*
Y313750D01*
D13*
X96500Y254000D02*
D03*
X66000Y301000D02*
D03*
X126500D02*
D03*
X475000Y375000D02*
D03*
Y25000D02*
D03*
X25000Y375000D02*
D03*
Y25000D02*
D03*
D14*
X104100Y184300D02*
D03*
X27900D02*
D03*
Y209700D02*
D03*
D15*
X104100D02*
D03*
D16*
X64300Y57000D02*
D03*
X89700D02*
D03*
X65000Y121000D02*
D03*
X90400D02*
D03*
X343700Y337000D02*
D03*
X318300D02*
D03*
X453700Y295000D02*
D03*
X428300D02*
D03*
X452700Y190000D02*
D03*
X427300D02*
D03*
X390300Y50000D02*
D03*
X415700D02*
D03*
X287300D02*
D03*
X312700D02*
D03*
X187300D02*
D03*
X212700D02*
D03*
D17*
X383000Y292000D02*
D03*
X372000Y308000D02*
D03*
X383000Y313750D02*
D03*
X395000Y216000D02*
D03*
X375000Y110000D02*
D03*
X333000D02*
D03*
X232000D02*
D03*
X133500Y136000D02*
D03*
X146000Y234000D02*
D03*
X150000Y359000D02*
D03*
M02*
