G04 Layer_Color=65535*
%FSLAX44Y44*%
%MOMM*%
G71*
G01*
G75*
%ADD12C,0.2000*%
%ADD24C,0.2540*%
%ADD25C,0.1500*%
%ADD26R,2.2000X3.0000*%
%ADD27R,1.4000X0.5000*%
D12*
X-20500Y252000D02*
X75500D01*
X-20500Y346000D02*
X131500D01*
X117500Y252000D02*
X131500D01*
Y277000D01*
Y324000D02*
Y346000D01*
X-20500Y252000D02*
Y346000D01*
X16000Y164000D02*
X116000D01*
X16000D02*
Y231000D01*
X116000D01*
Y164000D02*
Y231000D01*
X79840Y353490D02*
Y386510D01*
Y353490D02*
X100160D01*
Y386510D01*
X79840D02*
X100160D01*
X52870Y39220D02*
Y74780D01*
X53570Y103220D02*
Y138780D01*
X306870Y319220D02*
Y354780D01*
X416870Y277220D02*
Y312780D01*
X415870Y172220D02*
Y207780D01*
X427130Y32220D02*
Y67780D01*
X324130Y32220D02*
Y67780D01*
X224130Y32220D02*
Y67780D01*
X49000Y354000D02*
X63000D01*
Y388000D01*
X49000Y354000D02*
Y388000D01*
X63000D01*
X143000Y216990D02*
Y187000D01*
X157995D01*
X162994Y191998D01*
Y211992D01*
X157995Y216990D01*
X143000D01*
X172990Y187000D02*
Y206994D01*
X177989D01*
X182987Y201995D01*
Y187000D01*
Y201995D01*
X187985Y206994D01*
X192984Y201995D01*
Y187000D01*
X202981Y216990D02*
X222974D01*
X212977D01*
Y187000D01*
X232971Y206994D02*
Y187000D01*
Y196997D01*
X237969Y201995D01*
X242968Y206994D01*
X247966D01*
X267959Y187000D02*
X277956D01*
X282955Y191998D01*
Y201995D01*
X277956Y206994D01*
X267959D01*
X262961Y201995D01*
Y191998D01*
X267959Y187000D01*
X292951D02*
Y206994D01*
X307947D01*
X312945Y201995D01*
Y187000D01*
X322942D02*
X332938D01*
X327940D01*
Y206994D01*
X322942D01*
X347934Y187000D02*
Y216990D01*
Y196997D02*
X362929Y206994D01*
X347934Y196997D02*
X362929Y187000D01*
D24*
X53360Y38530D02*
G03*
X53360Y75470I23640J18470D01*
G01*
X54060Y102530D02*
G03*
X54060Y139470I23640J18470D01*
G01*
X307360Y318530D02*
G03*
X307360Y355470I23640J18470D01*
G01*
X417360Y276530D02*
G03*
X417360Y313470I23640J18470D01*
G01*
X416360Y171530D02*
G03*
X416360Y208470I23640J18470D01*
G01*
X426640Y68470D02*
G03*
X426640Y31530I-23640J-18470D01*
G01*
X323640Y68470D02*
G03*
X323640Y31530I-23640J-18470D01*
G01*
X223640Y68470D02*
G03*
X223640Y31530I-23640J-18470D01*
G01*
D25*
X136003Y259332D02*
Y256666D01*
Y257999D01*
X142667D01*
X144000Y256666D01*
Y255333D01*
X142667Y254000D01*
X144000Y261997D02*
Y264663D01*
Y263330D01*
X136003D01*
X137336Y261997D01*
X295003Y333000D02*
X303000D01*
Y336999D01*
X301667Y338332D01*
X296336D01*
X295003Y336999D01*
Y333000D01*
Y340997D02*
Y346329D01*
X296336D01*
X301667Y340997D01*
X303000D01*
X404003Y290000D02*
X412000D01*
Y293999D01*
X410667Y295332D01*
X405336D01*
X404003Y293999D01*
Y290000D01*
Y303329D02*
X405336Y300663D01*
X408001Y297997D01*
X410667D01*
X412000Y299330D01*
Y301996D01*
X410667Y303329D01*
X409334D01*
X408001Y301996D01*
Y297997D01*
X402003Y187000D02*
X410000D01*
Y190999D01*
X408667Y192332D01*
X403335D01*
X402003Y190999D01*
Y187000D01*
Y200329D02*
Y194997D01*
X406001D01*
X404668Y197663D01*
Y198996D01*
X406001Y200329D01*
X408667D01*
X410000Y198996D01*
Y196330D01*
X408667Y194997D01*
X433003Y45000D02*
X441000D01*
Y48999D01*
X439667Y50332D01*
X434336D01*
X433003Y48999D01*
Y45000D01*
X441000Y56996D02*
X433003D01*
X437001Y52997D01*
Y58329D01*
X331003Y46000D02*
X339000D01*
Y49999D01*
X337667Y51332D01*
X332336D01*
X331003Y49999D01*
Y46000D01*
X332336Y53997D02*
X331003Y55330D01*
Y57996D01*
X332336Y59329D01*
X333668D01*
X335001Y57996D01*
Y56663D01*
Y57996D01*
X336334Y59329D01*
X337667D01*
X339000Y57996D01*
Y55330D01*
X337667Y53997D01*
X232003Y47000D02*
X240000D01*
Y50999D01*
X238667Y52332D01*
X233335D01*
X232003Y50999D01*
Y47000D01*
X240000Y60329D02*
Y54997D01*
X234668Y60329D01*
X233335D01*
X232003Y58996D01*
Y56330D01*
X233335Y54997D01*
X120003Y166000D02*
X128000D01*
Y169999D01*
X126667Y171332D01*
X121335D01*
X120003Y169999D01*
Y166000D01*
X121335Y179329D02*
X120003Y177996D01*
Y175330D01*
X121335Y173997D01*
X122668D01*
X124001Y175330D01*
Y177996D01*
X125334Y179329D01*
X126667D01*
X128000Y177996D01*
Y175330D01*
X126667Y173997D01*
X120003Y181995D02*
X128000D01*
X125334Y184661D01*
X128000Y187326D01*
X120003D01*
X128000Y189992D02*
Y192658D01*
Y191325D01*
X120003D01*
X121335Y189992D01*
X67003Y355000D02*
X75000D01*
Y358999D01*
X73667Y360332D01*
X68335D01*
X67003Y358999D01*
Y355000D01*
X75000Y362997D02*
Y365663D01*
Y364330D01*
X67003D01*
X68335Y362997D01*
X38703Y121000D02*
X46700D01*
Y124999D01*
X45367Y126332D01*
X40036D01*
X38703Y124999D01*
Y121000D01*
X40036Y128997D02*
X38703Y130330D01*
Y132996D01*
X40036Y134329D01*
X41368D01*
X42701Y132996D01*
X44034Y134329D01*
X45367D01*
X46700Y132996D01*
Y130330D01*
X45367Y128997D01*
X44034D01*
X42701Y130330D01*
X41368Y128997D01*
X40036D01*
X42701Y130330D02*
Y132996D01*
X40003Y57000D02*
X48000D01*
Y60999D01*
X46667Y62332D01*
X41336D01*
X40003Y60999D01*
Y57000D01*
X46667Y64997D02*
X48000Y66330D01*
Y68996D01*
X46667Y70329D01*
X41336D01*
X40003Y68996D01*
Y66330D01*
X41336Y64997D01*
X42668D01*
X44001Y66330D01*
Y70329D01*
X113000Y372000D02*
X105003D01*
Y375999D01*
X106335Y377332D01*
X109001D01*
X110334Y375999D01*
Y372000D01*
Y374666D02*
X113000Y377332D01*
X106335Y379997D02*
X105003Y381330D01*
Y383996D01*
X106335Y385329D01*
X107668D01*
X109001Y383996D01*
Y382663D01*
Y383996D01*
X110334Y385329D01*
X111667D01*
X113000Y383996D01*
Y381330D01*
X111667Y379997D01*
D26*
X-9500Y301000D02*
D03*
D27*
X56000Y356500D02*
D03*
M02*
