M48
;Layer_Color=9474304
;FILE_FORMAT=4:4
METRIC,LZ
;TYPE=PLATED
T1F00S00C0.3000
T2F00S00C0.7000
T3F00S00C1.5000
;TYPE=NON_PLATED
T4F00S00C2.5400
%
T01
X001335Y00136
X00146Y00234
X0015Y00359
X00372Y00308
X00383Y0031375
Y00292
X00395Y00216
X00375Y0011
X00333
X00232
T02
X001873Y0005
X002127
X002873
X003127
X003903
X004157
X004273Y0019
X004527
X004537Y00295
X004283
X003437Y00337
X003183
X001041Y002097
Y001843
X000279
Y002097
X00065Y00121
X000904
X000897Y00057
X000643
T03
X000965Y00254
X001265Y00301
X00066
T04
X00025Y00025
X00475
Y00375
X00025
M30
